<mxfile host="app.diagrams.net" agent="Mozilla/5.0 (Macintosh; Intel Mac OS X 10_15_7) AppleWebKit/537.36 (KHTML, like Gecko) Chrome/136.0.0.0 Safari/537.36 Edg/136.0.0.0" version="26.2.14">
  <diagram id="prtHgNgQTEPvFCAcTncT" name="Page-1">
    <mxGraphModel dx="970" dy="704" grid="1" gridSize="10" guides="1" tooltips="1" connect="1" arrows="1" fold="1" page="1" pageScale="1" pageWidth="827" pageHeight="1169" math="0" shadow="0">
      <root>
        <mxCell id="0" />
        <mxCell id="1" parent="0" />
        <mxCell id="zAK88xkyq2ZjwmS9hykI-209" value="&lt;div&gt;&lt;br&gt;&lt;/div&gt;&lt;div&gt;&lt;br&gt;&lt;/div&gt;&lt;div&gt;&lt;br&gt;&lt;/div&gt;&lt;div&gt;&lt;br&gt;&lt;/div&gt;&lt;div&gt;&lt;br&gt;&lt;/div&gt;&lt;div&gt;&lt;br&gt;&lt;/div&gt;&lt;div&gt;&lt;br&gt;&lt;/div&gt;&lt;div&gt;&lt;br&gt;&lt;/div&gt;&lt;div&gt;&lt;br&gt;&lt;/div&gt;&lt;div&gt;&lt;br&gt;&lt;/div&gt;&lt;div&gt;&lt;br&gt;&lt;/div&gt;&lt;div&gt;&lt;br&gt;&lt;/div&gt;&lt;div&gt;&lt;br&gt;&lt;/div&gt;&lt;div&gt;&lt;br&gt;&lt;/div&gt;&lt;div&gt;&lt;br&gt;&lt;/div&gt;" style="rounded=1;whiteSpace=wrap;html=1;fontFamily=Helvetica;fillColor=#dae8fc;strokeColor=#6c8ebf;" vertex="1" parent="1">
          <mxGeometry x="380" y="220" width="120" height="120" as="geometry" />
        </mxCell>
        <mxCell id="zAK88xkyq2ZjwmS9hykI-161" value="&lt;div&gt;&lt;br&gt;&lt;/div&gt;&lt;div&gt;&lt;br&gt;&lt;/div&gt;&lt;div&gt;&lt;br&gt;&lt;/div&gt;&lt;div&gt;&lt;br&gt;&lt;/div&gt;&lt;div&gt;&lt;br&gt;&lt;/div&gt;&lt;div&gt;&lt;br&gt;&lt;/div&gt;&lt;div&gt;&lt;br&gt;&lt;/div&gt;&lt;div&gt;&lt;br&gt;&lt;/div&gt;&lt;div&gt;&lt;br&gt;&lt;/div&gt;&lt;div&gt;&lt;br&gt;&lt;/div&gt;&lt;div&gt;&lt;br&gt;&lt;/div&gt;&lt;div&gt;&lt;br&gt;&lt;/div&gt;&lt;div&gt;&lt;br&gt;&lt;/div&gt;&lt;div&gt;&lt;br&gt;&lt;/div&gt;&lt;div&gt;&lt;br&gt;&lt;/div&gt;" style="rounded=1;whiteSpace=wrap;html=1;fontFamily=Helvetica;dashed=1;" vertex="1" parent="1">
          <mxGeometry x="220" y="220" width="120" height="180" as="geometry" />
        </mxCell>
        <mxCell id="zAK88xkyq2ZjwmS9hykI-193" style="edgeStyle=orthogonalEdgeStyle;rounded=0;orthogonalLoop=1;jettySize=auto;html=1;exitX=1;exitY=0.5;exitDx=0;exitDy=0;entryX=0;entryY=0.5;entryDx=0;entryDy=0;" edge="1" parent="1" source="zAK88xkyq2ZjwmS9hykI-94" target="zAK88xkyq2ZjwmS9hykI-171">
          <mxGeometry relative="1" as="geometry" />
        </mxCell>
        <mxCell id="zAK88xkyq2ZjwmS9hykI-94" value="Prompts Generation&lt;div&gt;&lt;br&gt;&lt;/div&gt;&lt;div&gt;&lt;br&gt;&lt;/div&gt;&lt;div&gt;&lt;br&gt;&lt;/div&gt;&lt;div&gt;&lt;br&gt;&lt;/div&gt;&lt;div&gt;&lt;br&gt;&lt;/div&gt;&lt;div&gt;&lt;br&gt;&lt;/div&gt;&lt;div&gt;&lt;br&gt;&lt;/div&gt;&lt;div&gt;&lt;br&gt;&lt;/div&gt;&lt;div&gt;&lt;br&gt;&lt;/div&gt;&lt;div&gt;&lt;br&gt;&lt;/div&gt;&lt;div&gt;&lt;br&gt;&lt;/div&gt;" style="rounded=1;whiteSpace=wrap;html=1;fontFamily=Helvetica;" vertex="1" parent="1">
          <mxGeometry x="50" y="430" width="120" height="200" as="geometry" />
        </mxCell>
        <mxCell id="zAK88xkyq2ZjwmS9hykI-196" style="edgeStyle=orthogonalEdgeStyle;rounded=0;orthogonalLoop=1;jettySize=auto;html=1;exitX=0.5;exitY=1;exitDx=0;exitDy=0;exitPerimeter=0;entryX=0.5;entryY=0;entryDx=0;entryDy=0;" edge="1" parent="1" source="zAK88xkyq2ZjwmS9hykI-3" target="zAK88xkyq2ZjwmS9hykI-158">
          <mxGeometry relative="1" as="geometry" />
        </mxCell>
        <mxCell id="zAK88xkyq2ZjwmS9hykI-3" value="Java Projects" style="shape=cylinder3;whiteSpace=wrap;html=1;boundedLbl=1;backgroundOutline=1;size=15;fontFamily=Helvetica;" vertex="1" parent="1">
          <mxGeometry x="65" y="230" width="90" height="70" as="geometry" />
        </mxCell>
        <mxCell id="zAK88xkyq2ZjwmS9hykI-7" value="&lt;div&gt;Developer&lt;/div&gt;&lt;div&gt;Patch&lt;/div&gt;" style="rounded=1;whiteSpace=wrap;html=1;fillColor=#dae8fc;strokeColor=#6c8ebf;fontFamily=Helvetica;" vertex="1" parent="1">
          <mxGeometry x="230" y="290" width="100" height="40" as="geometry" />
        </mxCell>
        <mxCell id="zAK88xkyq2ZjwmS9hykI-216" style="edgeStyle=orthogonalEdgeStyle;rounded=0;orthogonalLoop=1;jettySize=auto;html=1;exitX=0.5;exitY=1;exitDx=0;exitDy=0;entryX=0.5;entryY=0;entryDx=0;entryDy=0;" edge="1" parent="1" source="zAK88xkyq2ZjwmS9hykI-8" target="zAK88xkyq2ZjwmS9hykI-10">
          <mxGeometry relative="1" as="geometry" />
        </mxCell>
        <mxCell id="zAK88xkyq2ZjwmS9hykI-8" value="Run Unit Test" style="rounded=1;whiteSpace=wrap;html=1;fontFamily=Helvetica;" vertex="1" parent="1">
          <mxGeometry x="390" y="230" width="100" height="40" as="geometry" />
        </mxCell>
        <mxCell id="zAK88xkyq2ZjwmS9hykI-10" value="Run JMH" style="rounded=1;whiteSpace=wrap;html=1;fontFamily=Helvetica;" vertex="1" parent="1">
          <mxGeometry x="390" y="290" width="100" height="40" as="geometry" />
        </mxCell>
        <mxCell id="zAK88xkyq2ZjwmS9hykI-243" style="edgeStyle=orthogonalEdgeStyle;rounded=0;orthogonalLoop=1;jettySize=auto;html=1;entryX=1;entryY=0.5;entryDx=0;entryDy=0;exitX=0.5;exitY=0;exitDx=0;exitDy=0;" edge="1" parent="1" source="zAK88xkyq2ZjwmS9hykI-26" target="zAK88xkyq2ZjwmS9hykI-114">
          <mxGeometry relative="1" as="geometry" />
        </mxCell>
        <mxCell id="zAK88xkyq2ZjwmS9hykI-26" value="Run LLMs&lt;div&gt;&lt;br&gt;&lt;/div&gt;&lt;div&gt;&lt;br&gt;&lt;/div&gt;&lt;div&gt;&lt;br&gt;&lt;/div&gt;&lt;div&gt;&lt;br&gt;&lt;/div&gt;&lt;div&gt;&lt;br&gt;&lt;/div&gt;&lt;div&gt;&lt;br&gt;&lt;/div&gt;&lt;div&gt;&lt;br&gt;&lt;/div&gt;&lt;div&gt;&lt;br&gt;&lt;/div&gt;&lt;div&gt;&lt;br&gt;&lt;/div&gt;&lt;div&gt;&lt;br&gt;&lt;/div&gt;&lt;div&gt;&lt;br&gt;&lt;/div&gt;" style="rounded=1;whiteSpace=wrap;html=1;align=center;fontFamily=Helvetica;" vertex="1" parent="1">
          <mxGeometry x="390" y="430" width="120" height="200" as="geometry" />
        </mxCell>
        <mxCell id="zAK88xkyq2ZjwmS9hykI-192" style="edgeStyle=orthogonalEdgeStyle;rounded=0;orthogonalLoop=1;jettySize=auto;html=1;entryX=0.5;entryY=0;entryDx=0;entryDy=0;" edge="1" parent="1" source="zAK88xkyq2ZjwmS9hykI-114" target="zAK88xkyq2ZjwmS9hykI-170">
          <mxGeometry relative="1" as="geometry" />
        </mxCell>
        <mxCell id="zAK88xkyq2ZjwmS9hykI-114" value="&lt;div&gt;LLM Patch&lt;/div&gt;" style="rounded=1;whiteSpace=wrap;html=1;fillColor=#dae8fc;strokeColor=#6c8ebf;fontFamily=Helvetica;" vertex="1" parent="1">
          <mxGeometry x="230" y="350" width="100" height="40" as="geometry" />
        </mxCell>
        <mxCell id="zAK88xkyq2ZjwmS9hykI-120" value="GPT-4o" style="rounded=0;whiteSpace=wrap;html=1;dashed=1;fontFamily=Helvetica;" vertex="1" parent="1">
          <mxGeometry x="400" y="465" width="100" height="30" as="geometry" />
        </mxCell>
        <mxCell id="zAK88xkyq2ZjwmS9hykI-121" value="DeepSeek-R3" style="rounded=0;whiteSpace=wrap;html=1;strokeColor=default;dashed=1;fontFamily=Helvetica;" vertex="1" parent="1">
          <mxGeometry x="400" y="510" width="100" height="30" as="geometry" />
        </mxCell>
        <mxCell id="zAK88xkyq2ZjwmS9hykI-122" value="Claude 3" style="rounded=0;whiteSpace=wrap;html=1;dashed=1;fontFamily=Helvetica;" vertex="1" parent="1">
          <mxGeometry x="400" y="550" width="100" height="30" as="geometry" />
        </mxCell>
        <mxCell id="zAK88xkyq2ZjwmS9hykI-127" value="Few-shot&lt;div&gt;(Unit Test)&lt;/div&gt;" style="rounded=0;whiteSpace=wrap;html=1;fontFamily=Helvetica;dashed=1;" vertex="1" parent="1">
          <mxGeometry x="60" y="470" width="100" height="40" as="geometry" />
        </mxCell>
        <mxCell id="zAK88xkyq2ZjwmS9hykI-128" value="Hint-enhanced (Perf Issue)" style="rounded=0;whiteSpace=wrap;html=1;fontFamily=Helvetica;dashed=1;" vertex="1" parent="1">
          <mxGeometry x="60" y="520" width="100" height="50" as="geometry" />
        </mxCell>
        <mxCell id="zAK88xkyq2ZjwmS9hykI-129" value="Hint-enhanced&lt;div&gt;&lt;span style=&quot;background-color: transparent; color: light-dark(rgb(0, 0, 0), rgb(255, 255, 255));&quot;&gt;(JMH)&lt;/span&gt;&lt;/div&gt;" style="rounded=0;whiteSpace=wrap;html=1;fontFamily=Helvetica;dashed=1;" vertex="1" parent="1">
          <mxGeometry x="60" y="580" width="100" height="40" as="geometry" />
        </mxCell>
        <mxCell id="zAK88xkyq2ZjwmS9hykI-142" value="LLaMA 3" style="rounded=0;whiteSpace=wrap;html=1;dashed=1;fontFamily=Helvetica;" vertex="1" parent="1">
          <mxGeometry x="400" y="590" width="100" height="30" as="geometry" />
        </mxCell>
        <mxCell id="zAK88xkyq2ZjwmS9hykI-245" style="edgeStyle=orthogonalEdgeStyle;rounded=0;orthogonalLoop=1;jettySize=auto;html=1;exitX=1;exitY=0.5;exitDx=0;exitDy=0;" edge="1" parent="1" source="zAK88xkyq2ZjwmS9hykI-158">
          <mxGeometry relative="1" as="geometry">
            <mxPoint x="220" y="270" as="targetPoint" />
            <Array as="points">
              <mxPoint x="195" y="353" />
              <mxPoint x="195" y="270" />
              <mxPoint x="220" y="270" />
            </Array>
          </mxGeometry>
        </mxCell>
        <mxCell id="zAK88xkyq2ZjwmS9hykI-247" style="edgeStyle=orthogonalEdgeStyle;rounded=0;orthogonalLoop=1;jettySize=auto;html=1;exitX=0.5;exitY=1;exitDx=0;exitDy=0;entryX=0.5;entryY=0;entryDx=0;entryDy=0;dashed=1;" edge="1" parent="1" source="zAK88xkyq2ZjwmS9hykI-158" target="zAK88xkyq2ZjwmS9hykI-94">
          <mxGeometry relative="1" as="geometry" />
        </mxCell>
        <mxCell id="zAK88xkyq2ZjwmS9hykI-158" value="&lt;div&gt;Collect Performance Patches&lt;/div&gt;" style="rounded=1;whiteSpace=wrap;html=1;fontFamily=Helvetica;" vertex="1" parent="1">
          <mxGeometry x="50" y="327" width="120" height="52" as="geometry" />
        </mxCell>
        <mxCell id="zAK88xkyq2ZjwmS9hykI-170" value="Error-guided&lt;div&gt;Prompt&lt;/div&gt;" style="rounded=1;whiteSpace=wrap;html=1;fontFamily=Helvetica;" vertex="1" parent="1">
          <mxGeometry x="220" y="430" width="120" height="52.5" as="geometry" />
        </mxCell>
        <mxCell id="zAK88xkyq2ZjwmS9hykI-194" style="edgeStyle=orthogonalEdgeStyle;rounded=0;orthogonalLoop=1;jettySize=auto;html=1;entryX=0;entryY=0.5;entryDx=0;entryDy=0;" edge="1" parent="1" source="zAK88xkyq2ZjwmS9hykI-171" target="zAK88xkyq2ZjwmS9hykI-26">
          <mxGeometry relative="1" as="geometry" />
        </mxCell>
        <mxCell id="zAK88xkyq2ZjwmS9hykI-171" value="Prompts Combinations" style="rounded=1;whiteSpace=wrap;html=1;fontFamily=Helvetica;" vertex="1" parent="1">
          <mxGeometry x="220" y="503.75" width="120" height="52.5" as="geometry" />
        </mxCell>
        <mxCell id="zAK88xkyq2ZjwmS9hykI-187" value="Source&lt;div&gt;Code&lt;/div&gt;" style="rounded=1;whiteSpace=wrap;html=1;fillColor=#dae8fc;strokeColor=#6c8ebf;fontFamily=Helvetica;" vertex="1" parent="1">
          <mxGeometry x="230" y="230" width="100" height="40" as="geometry" />
        </mxCell>
        <mxCell id="zAK88xkyq2ZjwmS9hykI-195" style="edgeStyle=orthogonalEdgeStyle;rounded=0;orthogonalLoop=1;jettySize=auto;html=1;exitX=1;exitY=0.5;exitDx=0;exitDy=0;entryX=-0.036;entryY=0.132;entryDx=0;entryDy=0;entryPerimeter=0;" edge="1" parent="1" source="zAK88xkyq2ZjwmS9hykI-170" target="zAK88xkyq2ZjwmS9hykI-26">
          <mxGeometry relative="1" as="geometry" />
        </mxCell>
        <mxCell id="zAK88xkyq2ZjwmS9hykI-232" style="edgeStyle=orthogonalEdgeStyle;rounded=0;orthogonalLoop=1;jettySize=auto;html=1;exitX=0.5;exitY=1;exitDx=0;exitDy=0;entryX=0.5;entryY=0;entryDx=0;entryDy=0;" edge="1" parent="1" source="zAK88xkyq2ZjwmS9hykI-212" target="zAK88xkyq2ZjwmS9hykI-227">
          <mxGeometry relative="1" as="geometry" />
        </mxCell>
        <mxCell id="zAK88xkyq2ZjwmS9hykI-212" value="&lt;div&gt;Code Analysis&lt;div&gt;&lt;br&gt;&lt;/div&gt;&lt;/div&gt;&lt;div&gt;&lt;br&gt;&lt;/div&gt;&lt;div&gt;&lt;br&gt;&lt;/div&gt;&lt;div&gt;&lt;br&gt;&lt;/div&gt;&lt;div&gt;&lt;br&gt;&lt;/div&gt;&lt;div&gt;&lt;br&gt;&lt;/div&gt;&lt;div&gt;&lt;br&gt;&lt;/div&gt;&lt;div&gt;&lt;br&gt;&lt;/div&gt;&lt;div&gt;&lt;br&gt;&lt;/div&gt;&lt;div&gt;&lt;br&gt;&lt;/div&gt;" style="rounded=1;whiteSpace=wrap;html=1;fontFamily=Helvetica;" vertex="1" parent="1">
          <mxGeometry x="550" y="220" width="120" height="180" as="geometry" />
        </mxCell>
        <mxCell id="zAK88xkyq2ZjwmS9hykI-215" value="CodeBLEU&lt;div&gt;Similarity&lt;/div&gt;" style="rounded=1;whiteSpace=wrap;html=1;fontFamily=Helvetica;" vertex="1" parent="1">
          <mxGeometry x="560" y="250" width="100" height="40" as="geometry" />
        </mxCell>
        <mxCell id="zAK88xkyq2ZjwmS9hykI-217" value="AST&lt;div&gt;Similarity&lt;/div&gt;" style="rounded=1;whiteSpace=wrap;html=1;fontFamily=Helvetica;" vertex="1" parent="1">
          <mxGeometry x="560" y="300" width="100" height="40" as="geometry" />
        </mxCell>
        <mxCell id="zAK88xkyq2ZjwmS9hykI-227" value="Performance Evaluation&lt;div&gt;&lt;br&gt;&lt;/div&gt;&lt;div&gt;&lt;br&gt;&lt;/div&gt;&lt;div&gt;&lt;br&gt;&lt;/div&gt;&lt;div&gt;&lt;br&gt;&lt;/div&gt;&lt;div&gt;&lt;br&gt;&lt;/div&gt;&lt;div&gt;&lt;br&gt;&lt;/div&gt;&lt;div&gt;&lt;br&gt;&lt;/div&gt;&lt;div&gt;&lt;br&gt;&lt;/div&gt;&lt;div&gt;&lt;br&gt;&lt;/div&gt;&lt;div&gt;&lt;br&gt;&lt;/div&gt;" style="rounded=1;whiteSpace=wrap;html=1;fontFamily=Helvetica;" vertex="1" parent="1">
          <mxGeometry x="550" y="430" width="120" height="200" as="geometry" />
        </mxCell>
        <mxCell id="zAK88xkyq2ZjwmS9hykI-234" value="Optimization Classification" style="rounded=1;whiteSpace=wrap;html=1;fontFamily=Helvetica;" vertex="1" parent="1">
          <mxGeometry x="560" y="350" width="100" height="40" as="geometry" />
        </mxCell>
        <mxCell id="zAK88xkyq2ZjwmS9hykI-235" value="..." style="rounded=1;whiteSpace=wrap;html=1;fontFamily=Helvetica;" vertex="1" parent="1">
          <mxGeometry x="560" y="480" width="100" height="40" as="geometry" />
        </mxCell>
        <mxCell id="zAK88xkyq2ZjwmS9hykI-236" value="..." style="rounded=1;whiteSpace=wrap;html=1;fontFamily=Helvetica;" vertex="1" parent="1">
          <mxGeometry x="560" y="530" width="100" height="40" as="geometry" />
        </mxCell>
        <mxCell id="zAK88xkyq2ZjwmS9hykI-237" value="..." style="rounded=1;whiteSpace=wrap;html=1;fontFamily=Helvetica;" vertex="1" parent="1">
          <mxGeometry x="560" y="580" width="100" height="40" as="geometry" />
        </mxCell>
        <mxCell id="zAK88xkyq2ZjwmS9hykI-244" style="edgeStyle=orthogonalEdgeStyle;rounded=0;orthogonalLoop=1;jettySize=auto;html=1;exitX=1;exitY=0.25;exitDx=0;exitDy=0;" edge="1" parent="1" source="zAK88xkyq2ZjwmS9hykI-161">
          <mxGeometry relative="1" as="geometry">
            <mxPoint x="380" y="270" as="targetPoint" />
            <Array as="points">
              <mxPoint x="340" y="270" />
              <mxPoint x="380" y="270" />
            </Array>
          </mxGeometry>
        </mxCell>
        <mxCell id="zAK88xkyq2ZjwmS9hykI-246" style="edgeStyle=orthogonalEdgeStyle;rounded=0;orthogonalLoop=1;jettySize=auto;html=1;" edge="1" parent="1" source="zAK88xkyq2ZjwmS9hykI-209">
          <mxGeometry relative="1" as="geometry">
            <mxPoint x="550" y="270" as="targetPoint" />
            <Array as="points">
              <mxPoint x="550" y="270" />
            </Array>
          </mxGeometry>
        </mxCell>
      </root>
    </mxGraphModel>
  </diagram>
</mxfile>
